<svg version="1" xmlns="http://www.w3.org/2000/svg" width="413.333" height="413.333" viewBox="0 0 310.000000 310.000000"><path d="M230 16.8c-5.8.8-10.8 2-11.2 2.6-.4.6-.8 22.6-.8 48.9 0 37.3-.3 47.9-1.2 48.2-.7.2-7.8 1.4-15.8 2.5s-17.6 2.4-21.5 3c-3.8.6-14.8 2.2-24.4 3.5-9.6 1.4-17.9 2.9-18.3 3.3-.5.5-.8 4-.6 7.8l.3 6.9 3-.1c2.8 0 7.6-.7 37.5-4.9 5.8-.8 13.7-1.9 17.5-2.5 3.9-.5 15-2.1 24.8-3.5s18.9-2.5 20.2-2.5c1.3 0 6.6 2.2 11.8 5 5.2 2.7 9.7 4.7 10.1 4.3.3-.3.6-22.3.6-48.8V42.4l-9.7-5.4-9.8-5.4 3.5-.8c1.9-.4 7.7-1.2 12.8-1.9 5.7-.8 9.1-1.7 8.9-2.3-.2-.6-4.6-3.4-9.8-6.3-10.6-5.9-11.2-6-27.9-3.5zM86 37c-10.9 1.6-20.4 3.1-20.6 3.3-.4.4-.7 254.8-.3 255.1.2.2 4.8 2.7 10.2 5.6l9.9 5.2 9.1-1.1c5.1-.7 10.2-1.5 11.5-1.8l2.2-.5V63.4l-5.7-3.1c-14-7.5-14.8-8.3-8.5-8.4 2 0 7.1-.6 11.2-1.4 4.1-.7 7.8-1.1 8.3-.8.4.2.7-.2.7-.9 0-1.2-17.4-11.3-20.9-12.1-.9-.2-4.1-.1-7.1.3zM252.5 171.1c-2.7.5-8.1 1.1-12 1.3-11.2.6-19.9 1.8-21.2 2.9-1 .7-1.3 11.8-1.3 49.3V273l3.8 2.3c2 1.3 6.9 4 10.7 6 6.5 3.3 7.4 3.5 12.5 2.7 3-.5 7.9-1.2 10.8-1.6l5.2-.7v-43.1c0-23.7.1-48.7.3-55.6.2-14.2.7-13.6-8.8-11.9z"/></svg>